<svg width="83" height="65" viewBox="0 0 83 65" class="text-color bg-color" xmlns="http://www.w3.org/2000/svg">
<path d="M69.8648 25.5763L61.5734 35.3339L59.6952 35.3318L59.7069 25.5652L56.8427 25.5621L56.8164 47.4274L59.6807 47.4305L59.6925 37.5544L61.602 37.5565L69.8386 47.4417L73.2976 47.4454L63.9667 36.5104L73.3238 25.5801L69.8648 25.5763Z" fill="#4361ee"/>
<path d="M69.8648 25.5763L69.8671 23.7L68.9979 23.699L68.435 24.3614L69.8648 25.5763ZM61.5734 35.3339L61.5711 37.2103L62.4403 37.2112L63.0032 36.5488L61.5734 35.3339ZM59.6952 35.3318L57.8188 35.3298L57.8166 37.2061L59.6929 37.2082L59.6952 35.3318ZM59.7069 25.5652L61.5833 25.5673L61.5855 23.6909L59.7092 23.6889L59.7069 25.5652ZM56.8427 25.5621L56.8449 23.6857L54.9686 23.6837L54.9663 25.56L56.8427 25.5621ZM56.8164 47.4274L54.94 47.4253L54.9378 49.3017L56.8142 49.3038L56.8164 47.4274ZM59.6807 47.4305L59.6784 49.3069L61.5548 49.309L61.557 47.4326L59.6807 47.4305ZM59.6925 37.5544L59.6948 35.678L57.8184 35.6759L57.8162 37.5523L59.6925 37.5544ZM61.602 37.5565L63.0436 36.3552L62.4819 35.6811L61.6043 35.6801L61.602 37.5565ZM69.8386 47.4417L68.397 48.6429L68.9587 49.3171L69.8363 49.318L69.8386 47.4417ZM73.2976 47.4454L73.2953 49.3218L77.3692 49.3263L74.725 46.2274L73.2976 47.4454ZM63.9667 36.5104L62.5413 35.2902L61.4984 36.5086L62.5393 37.7284L63.9667 36.5104ZM73.3238 25.5801L74.7492 26.8003L77.3962 23.7082L73.3261 23.7038L73.3238 25.5801ZM68.435 24.3614L60.1436 34.119L63.0032 36.5488L71.2946 26.7913L68.435 24.3614ZM61.5756 33.4575L59.6974 33.4555L59.6929 37.2082L61.5711 37.2103L61.5756 33.4575ZM61.5716 35.3339L61.5833 25.5673L57.8306 25.5632L57.8188 35.3298L61.5716 35.3339ZM59.7092 23.6889L56.8449 23.6857L56.8404 27.4384L59.7047 27.4416L59.7092 23.6889ZM54.9663 25.56L54.94 47.4253L58.6928 47.4295L58.719 25.5641L54.9663 25.56ZM56.8142 49.3038L59.6784 49.3069L59.6829 45.5542L56.8187 45.551L56.8142 49.3038ZM61.557 47.4326L61.5689 37.5564L57.8162 37.5523L57.8043 47.4285L61.557 47.4326ZM59.6903 39.4307L61.5998 39.4328L61.6043 35.6801L59.6948 35.678L59.6903 39.4307ZM60.1604 38.7577L68.397 48.6429L71.2802 46.2404L63.0436 36.3552L60.1604 38.7577ZM69.8363 49.318L73.2953 49.3218L73.2998 45.5691L69.8408 45.5653L69.8363 49.318ZM74.725 46.2274L65.3941 35.2923L62.5393 37.7284L71.8702 48.6635L74.725 46.2274ZM65.392 37.7305L74.7492 26.8003L71.8985 24.36L62.5413 35.2902L65.392 37.7305ZM73.3261 23.7038L69.8671 23.7L69.8626 27.4527L73.3216 27.4565L73.3261 23.7038Z" fill="#4361ee"/>
<path d="M41.2821 35.1081L37.16 32.6131C34.5746 31.0402 32.7305 29.4944 31.6277 27.9757C30.5429 26.4389 30.0005 24.6762 30.0005 22.6874C30.0005 19.7043 31.031 17.2816 33.0921 15.4195C35.1713 13.5573 37.8651 12.6262 41.1737 12.6262C44.3376 12.6262 47.2393 13.5121 49.879 15.2839V21.4399C47.149 18.8184 44.211 17.5076 41.0652 17.5076C39.2934 17.5076 37.838 17.9235 36.699 18.7551C35.56 19.5687 34.9905 20.6173 34.9905 21.901C34.9905 23.04 35.4063 24.1067 36.2379 25.101C37.0696 26.0954 38.4165 27.135 40.2787 28.2198L44.428 30.6605C49.0563 33.4086 51.3705 36.916 51.3705 41.1828C51.3705 44.2202 50.349 46.688 48.306 48.5864C46.2811 50.4847 43.6415 51.4339 40.3872 51.4339C36.6447 51.4339 33.2367 50.2859 30.1632 47.9898V41.1014C33.0921 44.8078 36.482 46.6609 40.333 46.6609C42.0324 46.6609 43.4426 46.1908 44.5636 45.2507C45.7026 44.2925 46.2721 43.0992 46.2721 41.671C46.2721 39.3568 44.6088 37.1691 41.2821 35.1081Z" fill="#4361ee"/>
<path d="M41.2821 35.1081L42.641 32.9149L42.6295 32.9078L42.6181 32.9009L41.2821 35.1081ZM37.16 32.6131L35.819 34.8172L35.8241 34.8203L37.16 32.6131ZM31.6277 27.9757L29.5199 29.4635L29.5299 29.4777L29.54 29.4917L31.6277 27.9757ZM33.0921 15.4195L31.3708 13.4976L31.3625 13.5051L33.0921 15.4195ZM49.879 15.2839H52.459V13.9083L51.3169 13.1417L49.879 15.2839ZM49.879 21.4399L48.092 23.3009L52.459 27.4943V21.4399H49.879ZM36.699 18.7551L38.1986 20.8546L38.2095 20.8467L38.2204 20.8388L36.699 18.7551ZM40.2787 28.2198L41.5868 25.996L41.5774 25.9904L40.2787 28.2198ZM44.428 30.6605L45.7452 28.4421L45.7361 28.4367L44.428 30.6605ZM48.306 48.5864L46.5498 46.6964L46.5415 46.7042L48.306 48.5864ZM30.1632 47.9898H27.5832V49.2828L28.6191 50.0567L30.1632 47.9898ZM30.1632 41.1014L32.1875 39.5018L27.5832 33.6755V41.1014H30.1632ZM44.5636 45.2507L46.2215 47.2275L46.2245 47.225L44.5636 45.2507ZM42.6181 32.9009L38.4959 30.4059L35.8241 34.8203L39.9462 37.3153L42.6181 32.9009ZM38.501 30.409C36.0502 28.918 34.5317 27.584 33.7153 26.4597L29.54 29.4917C30.9293 31.4047 33.099 33.1624 35.819 34.8172L38.501 30.409ZM33.7354 26.4879C32.9761 25.4121 32.5805 24.1757 32.5805 22.6874H27.4205C27.4205 25.1767 28.1097 27.4658 29.5199 29.4635L33.7354 26.4879ZM32.5805 22.6874C32.5805 20.3733 33.3455 18.6676 34.8217 17.3338L31.3625 13.5051C28.7166 15.8957 27.4205 19.0353 27.4205 22.6874H32.5805ZM34.8134 17.3413C36.3342 15.9792 38.3759 15.2062 41.1737 15.2062V10.0462C37.3543 10.0462 34.0083 11.1353 31.3708 13.4976L34.8134 17.3413ZM41.1737 15.2062C43.8228 15.2062 46.2245 15.9382 48.4411 17.426L51.3169 13.1417C48.2542 11.0859 44.8523 10.0462 41.1737 10.0462V15.2062ZM47.299 15.2839V21.4399H52.459V15.2839H47.299ZM51.666 19.579C48.5592 16.5957 45.0083 14.9276 41.0652 14.9276V20.0876C43.4137 20.0876 45.7387 21.0411 48.092 23.3009L51.666 19.579ZM41.0652 14.9276C38.8881 14.9276 36.8604 15.4427 35.1776 16.6715L38.2204 20.8388C38.8156 20.4042 39.6987 20.0876 41.0652 20.0876V14.9276ZM35.1994 16.6557C33.4539 17.9024 32.4105 19.6999 32.4105 21.901H37.5705C37.5705 21.5348 37.666 21.235 38.1986 20.8546L35.1994 16.6557ZM32.4105 21.901C32.4105 23.7282 33.0958 25.3656 34.2589 26.7563L38.217 23.4458C37.7168 22.8477 37.5705 22.3518 37.5705 21.901H32.4105ZM34.2589 26.7563C35.3678 28.0821 37.0073 29.2999 38.9801 30.4491L41.5774 25.9904C39.8258 24.9701 38.7714 24.1087 38.217 23.4458L34.2589 26.7563ZM38.9706 30.4436L43.1199 32.8843L45.7361 28.4367L41.5868 25.996L38.9706 30.4436ZM43.1108 32.8789C47.1928 35.3026 48.7905 38.0715 48.7905 41.1828H53.9505C53.9505 35.7605 50.9199 31.5146 45.7452 28.4421L43.1108 32.8789ZM48.7905 41.1828C48.7905 43.5743 48.0175 45.3326 46.5498 46.6964L50.0622 50.4764C52.6806 48.0434 53.9505 44.866 53.9505 41.1828H48.7905ZM46.5415 46.7042C45.0761 48.078 43.1067 48.8539 40.3872 48.8539V54.0139C44.1763 54.0139 47.4862 52.8915 50.0706 50.4686L46.5415 46.7042ZM40.3872 48.8539C37.2162 48.8539 34.347 47.8948 31.7073 45.9228L28.6191 50.0567C32.1265 52.6769 36.0733 54.0139 40.3872 54.0139V48.8539ZM32.7432 47.9898V41.1014H27.5832V47.9898H32.7432ZM28.139 42.7011C31.4345 46.8714 35.5142 49.2409 40.333 49.2409V44.0809C37.4498 44.0809 34.7497 42.7441 32.1875 39.5018L28.139 42.7011ZM40.333 49.2409C42.5355 49.2409 44.5626 48.6189 46.2215 47.2275L42.9056 43.2739C42.3227 43.7628 41.5294 44.0809 40.333 44.0809V49.2409ZM46.2245 47.225C47.918 45.8003 48.8521 43.8968 48.8521 41.671H43.6921C43.6921 42.3017 43.4872 42.7847 42.9027 43.2764L46.2245 47.225ZM48.8521 41.671C48.8521 37.9775 46.1926 35.1154 42.641 32.9149L39.9233 37.3013C43.025 39.2229 43.6921 40.736 43.6921 41.671H48.8521Z" fill="#4361ee"/>
<path d="M11.7735 25.5589L20.0532 35.3255H21.9314V25.5589H24.7956V47.4242H21.9314V37.548H20.0219L11.7735 47.4242H8.31445L17.6585 36.4994L8.31445 25.5589H11.7735Z" fill="#4361ee"/>
<path d="M11.7735 25.5589V23.9953H12.4978L12.9662 24.5478L11.7735 25.5589ZM20.0532 35.3255V36.8892H19.3289L18.8605 36.3366L20.0532 35.3255ZM21.9314 35.3255H23.495V36.8892H21.9314V35.3255ZM21.9314 25.5589H20.3677V23.9953H21.9314V25.5589ZM24.7956 25.5589V23.9953H26.3593V25.5589H24.7956ZM24.7956 47.4242H26.3593V48.9879H24.7956V47.4242ZM21.9314 47.4242V48.9879H20.3677V47.4242H21.9314ZM21.9314 37.548V35.9844H23.495V37.548H21.9314ZM20.0219 37.548L18.8217 36.5457L19.2905 35.9844H20.0219V37.548ZM11.7735 47.4242L12.9736 48.4266L12.5048 48.9879H11.7735V47.4242ZM8.31445 47.4242V48.9879H4.91952L7.12617 46.4079L8.31445 47.4242ZM17.6585 36.4994L18.8475 35.4839L19.7154 36.5001L18.8468 37.5157L17.6585 36.4994ZM8.31445 25.5589L7.12545 26.5744L4.92267 23.9953H8.31445V25.5589ZM12.9662 24.5478L21.2459 34.3144L18.8605 36.3366L10.5807 26.57L12.9662 24.5478ZM20.0532 33.7619H21.9314V36.8892H20.0532V33.7619ZM20.3677 35.3255V25.5589H23.495V35.3255H20.3677ZM21.9314 23.9953H24.7956V27.1225H21.9314V23.9953ZM26.3593 25.5589V47.4242H23.232V25.5589H26.3593ZM24.7956 48.9879H21.9314V45.8606H24.7956V48.9879ZM20.3677 47.4242V37.548H23.495V47.4242H20.3677ZM21.9314 39.1117H20.0219V35.9844H21.9314V39.1117ZM21.222 38.5504L12.9736 48.4266L10.5733 46.4219L18.8217 36.5457L21.222 38.5504ZM11.7735 48.9879H8.31445V45.8606H11.7735V48.9879ZM7.12617 46.4079L16.4702 35.483L18.8468 37.5157L9.50274 48.4406L7.12617 46.4079ZM16.4695 37.5149L7.12545 26.5744L9.50345 24.5434L18.8475 35.4839L16.4695 37.5149ZM8.31445 23.9953H11.7735V27.1225H8.31445V23.9953Z" fill="#4361ee"/>
<path d="M11 24H21.9455V28.6909H11V24Z" fill="#4361ee"/>
</svg>
